<svg width="334" height="112" viewBox="0 0 334 112" fill="none" xmlns="http://www.w3.org/2000/svg">
<rect x="1.5813" y="1.82154" width="331.028" height="108.488" rx="15.2996" fill="white"/>
<rect x="1.5813" y="1.82154" width="331.028" height="108.488" rx="15.2996" stroke="black" stroke-width="2.78175"/>
<path d="M49.7196 54.5681L22.6943 83.8995C22.6969 83.9047 22.6969 83.9125 22.6994 83.9177C23.5294 87.1026 26.3723 89.4465 29.7483 89.4465C31.0986 89.4465 32.3653 89.0728 33.4516 88.4186L33.5379 88.3667L63.9569 70.4175L49.7196 54.5681Z" fill="#EA4335"/>
<path d="M77.0588 49.5734L77.0334 49.5553L63.9002 41.7708L49.1045 55.2346L63.9535 70.4143L77.0156 62.7077C79.3052 61.441 80.8611 58.9725 80.8611 56.1276C80.8611 53.2983 79.328 50.8427 77.0588 49.5734Z" fill="#FBBC04"/>
<path d="M22.6931 28.2294C22.5306 28.842 22.4443 29.4857 22.4443 30.1502V81.9812C22.4443 82.6457 22.5306 83.2894 22.6956 83.8994L50.6474 55.3182L22.6931 28.2294Z" fill="#4285F4"/>
<path d="M49.9187 56.0657L63.9047 41.766L33.5213 23.7518C32.4171 23.0743 31.1276 22.685 29.7493 22.685C26.3734 22.685 23.5254 25.0341 22.6954 28.2216C22.6954 28.2242 22.6929 28.2268 22.6929 28.2294L49.9187 56.0657Z" fill="#34A853"/>
<path d="M119.069 31.7562V39.406C118.067 40.1293 116.996 40.6717 115.856 41.0334C114.724 41.3857 113.482 41.5619 112.128 41.5619C110.524 41.5619 109.077 41.3162 107.789 40.8247C106.5 40.324 105.396 39.6286 104.478 38.7384C103.57 37.839 102.87 36.7634 102.378 35.5116C101.887 34.2598 101.641 32.8828 101.641 31.3807C101.641 29.86 101.877 28.4738 102.35 27.222C102.832 25.9702 103.514 24.8992 104.395 24.0091C105.276 23.1096 106.347 22.4142 107.608 21.9228C108.869 21.4313 110.278 21.1856 111.836 21.1856C112.624 21.1856 113.357 21.2459 114.034 21.3664C114.71 21.4777 115.336 21.6446 115.911 21.8671C116.486 22.0804 117.019 22.3447 117.511 22.6599C118.002 22.9659 118.461 23.3136 118.888 23.7031L118.123 24.9271C118.002 25.1125 117.845 25.233 117.65 25.2887C117.464 25.335 117.256 25.2887 117.024 25.1496C116.801 25.0198 116.546 24.8621 116.259 24.6767C115.972 24.4912 115.619 24.3151 115.202 24.1482C114.794 23.972 114.307 23.8236 113.742 23.7031C113.185 23.5825 112.522 23.5223 111.753 23.5223C110.631 23.5223 109.615 23.7077 108.707 24.0786C107.798 24.4402 107.024 24.9641 106.384 25.6503C105.744 26.3272 105.253 27.1525 104.909 28.1261C104.566 29.0904 104.395 30.1753 104.395 31.3807C104.395 32.6325 104.571 33.7545 104.923 34.7466C105.285 35.7295 105.795 36.5687 106.453 37.2641C107.121 37.9503 107.928 38.4742 108.873 38.8358C109.819 39.1974 110.881 39.3782 112.059 39.3782C112.986 39.3782 113.806 39.2762 114.52 39.0722C115.244 38.859 115.948 38.5669 116.635 38.196V33.8147H113.533C113.357 33.8147 113.213 33.7637 113.102 33.6617C113 33.5597 112.949 33.4346 112.949 33.2862V31.7562H119.069ZM135.494 39.1418L135.48 41.3394H123.199V21.4081H135.48V23.6057H125.897V30.2263H133.658V32.3404H125.897V39.1418H135.494ZM152.731 23.6753H146.277V41.3394H143.593V23.6753H137.125V21.4081H152.731V23.6753ZM164.662 41.3394H161.964V21.4081H164.662V41.3394ZM183.238 23.6753H176.784V41.3394H174.1V23.6753H167.632V21.4081H183.238V23.6753ZM210.886 31.3807C210.886 32.8736 210.649 34.2459 210.176 35.4977C209.703 36.7402 209.036 37.8112 208.174 38.7106C207.311 39.61 206.273 40.3101 205.058 40.8108C203.853 41.3023 202.517 41.548 201.052 41.548C199.587 41.548 198.252 41.3023 197.047 40.8108C195.841 40.3101 194.807 39.61 193.945 38.7106C193.083 37.8112 192.415 36.7402 191.942 35.4977C191.469 34.2459 191.233 32.8736 191.233 31.3807C191.233 29.8878 191.469 28.5201 191.942 27.2776C192.415 26.0258 193.083 24.9502 193.945 24.0508C194.807 23.1421 195.841 22.4374 197.047 21.9367C198.252 21.436 199.587 21.1856 201.052 21.1856C202.517 21.1856 203.853 21.436 205.058 21.9367C206.273 22.4374 207.311 23.1421 208.174 24.0508C209.036 24.9502 209.703 26.0258 210.176 27.2776C210.649 28.5201 210.886 29.8878 210.886 31.3807ZM208.118 31.3807C208.118 30.1567 207.951 29.0579 207.617 28.0843C207.283 27.1107 206.81 26.2901 206.198 25.6225C205.587 24.9456 204.845 24.4263 203.973 24.0647C203.101 23.7031 202.128 23.5223 201.052 23.5223C199.986 23.5223 199.017 23.7031 198.145 24.0647C197.274 24.4263 196.527 24.9456 195.906 25.6225C195.294 26.2901 194.821 27.1107 194.487 28.0843C194.154 29.0579 193.987 30.1567 193.987 31.3807C193.987 32.6047 194.154 33.7035 194.487 34.6771C194.821 35.6414 195.294 36.462 195.906 37.1389C196.527 37.8065 197.274 38.3212 198.145 38.6828C199.017 39.0351 199.986 39.2113 201.052 39.2113C202.128 39.2113 203.101 39.0351 203.973 38.6828C204.845 38.3212 205.587 37.8065 206.198 37.1389C206.81 36.462 207.283 35.6414 207.617 34.6771C207.951 33.7035 208.118 32.6047 208.118 31.3807ZM230.894 21.4081V41.3394H229.545C229.332 41.3394 229.151 41.3023 229.003 41.2281C228.864 41.1539 228.725 41.0287 228.585 40.8525L217.055 25.8311C217.074 26.0629 217.088 26.2901 217.097 26.5126C217.106 26.7352 217.111 26.9438 217.111 27.1385V41.3394H214.746V21.4081H216.137C216.258 21.4081 216.36 21.4174 216.443 21.436C216.527 21.4452 216.601 21.4684 216.666 21.5055C216.731 21.5333 216.795 21.5797 216.86 21.6446C216.925 21.7002 216.995 21.7744 217.069 21.8671L228.599 36.8747C228.581 36.6336 228.562 36.4018 228.544 36.1792C228.534 35.9474 228.53 35.7295 228.53 35.5255V21.4081H230.894Z" fill="black"/>
<path d="M260.334 87.4235H264.865V56.7922H260.334V87.4235ZM301.144 67.8259L295.95 81.1066H295.795L290.405 67.8259H285.524L293.607 86.387L289.001 96.7126H293.724L306.183 67.8259H301.144ZM275.45 83.944C273.964 83.944 271.895 83.1967 271.895 81.3418C271.895 78.9797 274.471 78.0731 276.698 78.0731C278.689 78.0731 279.628 78.5068 280.838 79.0973C280.486 81.9348 278.065 83.944 275.45 83.944ZM275.996 67.157C272.715 67.157 269.316 68.6149 267.913 71.8469L271.934 73.54C272.793 71.8469 274.393 71.2931 276.074 71.2931C278.417 71.2931 280.799 72.7118 280.838 75.2357V75.5493C280.017 75.0764 278.261 74.3683 276.112 74.3683C271.778 74.3683 267.364 76.772 267.364 81.2634C267.364 85.3628 270.919 88.0042 274.901 88.0042C277.948 88.0042 279.628 86.6247 280.682 85.0075H280.838V87.372H285.211V75.6277C285.211 70.1905 281.19 67.157 275.996 67.157ZM247.994 71.5553H241.55V61.0558H247.994C251.382 61.0558 253.305 63.8859 253.305 66.3043C253.305 68.6786 251.382 71.5553 247.994 71.5553ZM247.878 56.7922H237.022V87.4235H241.55V75.8188H247.878C252.899 75.8188 257.836 72.1483 257.836 66.3043C257.836 60.4603 252.899 56.7922 247.878 56.7922ZM188.677 83.9489C185.547 83.9489 182.927 81.3051 182.927 77.6737C182.927 74.0032 185.547 71.3176 188.677 71.3176C191.768 71.3176 194.191 74.0032 194.191 77.6737C194.191 81.3051 191.768 83.9489 188.677 83.9489ZM193.881 69.5412H193.723C192.705 68.3185 190.751 67.2134 188.286 67.2134C183.121 67.2134 178.389 71.7905 178.389 77.6737C178.389 83.5152 183.121 88.0556 188.286 88.0556C190.751 88.0556 192.705 86.9506 193.723 85.6862H193.881V87.1882C193.881 91.1749 191.768 93.3066 188.364 93.3066C185.586 93.3066 183.864 91.2925 183.16 89.5944L179.21 91.2533C180.344 94.0172 183.357 97.4109 188.364 97.4109C193.684 97.4109 198.183 94.2524 198.183 86.5561V67.8431H193.881V69.5412ZM201.313 87.4235H205.851V56.7898H201.313V87.4235ZM212.539 77.3184C212.422 73.2926 215.63 71.2392 217.936 71.2392C219.738 71.2392 221.263 72.1458 221.77 73.4494L212.539 77.3184ZM226.622 73.8439C225.762 71.5161 223.14 67.2134 217.781 67.2134C212.461 67.2134 208.042 71.4352 208.042 77.6345C208.042 83.476 212.422 88.0556 218.288 88.0556C223.023 88.0556 225.762 85.1349 226.896 83.4368L223.375 81.0674C222.203 82.8046 220.598 83.9489 218.288 83.9489C215.982 83.9489 214.338 82.883 213.282 80.7929L227.09 75.0274L226.622 73.8439ZM116.607 70.411V74.8314H127.089C126.776 77.3184 125.955 79.1341 124.705 80.396C123.178 81.9372 120.791 83.6353 116.607 83.6353C110.151 83.6353 105.105 78.3843 105.105 71.8714C105.105 65.356 110.151 60.1075 116.607 60.1075C120.089 60.1075 122.631 61.4895 124.508 63.2659L127.599 60.1467C124.977 57.6204 121.497 55.6847 116.607 55.6847C107.766 55.6847 100.333 62.9498 100.333 71.8714C100.333 80.7929 107.766 88.0556 116.607 88.0556C121.378 88.0556 124.977 86.4752 127.793 83.5152C130.69 80.5945 131.589 76.4902 131.589 73.1725C131.589 72.1458 131.511 71.2 131.353 70.411H116.607ZM143.509 83.9489C140.379 83.9489 137.679 81.3443 137.679 77.6345C137.679 73.8831 140.379 71.3176 143.509 71.3176C146.636 71.3176 149.336 73.8831 149.336 77.6345C149.336 81.3443 146.636 83.9489 143.509 83.9489ZM143.509 67.2134C137.795 67.2134 133.14 71.5945 133.14 77.6345C133.14 83.6353 137.795 88.0556 143.509 88.0556C149.22 88.0556 153.874 83.6353 153.874 77.6345C153.874 71.5945 149.22 67.2134 143.509 67.2134ZM166.122 83.9489C162.992 83.9489 160.292 81.3443 160.292 77.6345C160.292 73.8831 162.992 71.3176 166.122 71.3176C169.252 71.3176 171.949 73.8831 171.949 77.6345C171.949 81.3443 169.252 83.9489 166.122 83.9489ZM166.122 67.2134C160.411 67.2134 155.756 71.5945 155.756 77.6345C155.756 83.6353 160.411 88.0556 166.122 88.0556C171.833 88.0556 176.488 83.6353 176.488 77.6345C176.488 71.5945 171.833 67.2134 166.122 67.2134Z" fill="black"/>
</svg>
